<svg width="512" height="512" viewBox="0 0 512 512" fill="none" xmlns="http://www.w3.org/2000/svg">
<g clip-path="url(#clip0_959_4588)">
<path d="M256 512C397.385 512 512 397.385 512 256C512 114.615 397.385 0 256 0C114.615 0 0 114.615 0 256C0 397.385 114.615 512 256 512Z" fill="#1E1E2E"/>
<path d="M444 72H68C52.536 72 40 84.536 40 100V396C40 411.464 52.536 424 68 424H444C459.464 424 472 411.464 472 396V100C472 84.536 459.464 72 444 72Z" fill="#0D0D1A"/>
<path d="M444 72H68C52.536 72 40 84.536 40 100C40 115.464 52.536 128 68 128H444C459.464 128 472 115.464 472 100C472 84.536 459.464 72 444 72Z" fill="#2A2A3E"/>
<path d="M472 100H40V128H472V100Z" fill="#2A2A3E"/>
<path d="M288 168H76C73.7909 168 72 169.791 72 172V174C72 176.209 73.7909 178 76 178H288C290.209 178 292 176.209 292 174V172C292 169.791 290.209 168 288 168Z" fill="#3A3A5A"/>
<path d="M228 200H76C73.7909 200 72 201.791 72 204V206C72 208.209 73.7909 210 76 210H228C230.209 210 232 208.209 232 206V204C232 201.791 230.209 200 228 200Z" fill="#3A3A5A"/>
<path d="M340 232H76C73.7909 232 72 233.791 72 236V238C72 240.209 73.7909 242 76 242H340C342.209 242 344 240.209 344 238V236C344 233.791 342.209 232 340 232Z" fill="#3A3A5A"/>
<path d="M180 264H76C73.7909 264 72 265.791 72 268V270C72 272.209 73.7909 274 76 274H180C182.209 274 184 272.209 184 270V268C184 265.791 182.209 264 180 264Z" fill="#3A3A5A"/>
<path d="M260 296H76C73.7909 296 72 297.791 72 300V302C72 304.209 73.7909 306 76 306H260C262.209 306 264 304.209 264 302V300C264 297.791 262.209 296 260 296Z" fill="#3A3A5A"/>
<path d="M208 328H76C73.7909 328 72 329.791 72 332V334C72 336.209 73.7909 338 76 338H208C210.209 338 212 336.209 212 334V332C212 329.791 210.209 328 208 328Z" fill="#3A3A5A"/>
<path d="M96 360H76C73.7909 360 72 361.791 72 364V366C72 368.209 73.7909 370 76 370H96C98.2091 370 100 368.209 100 366V364C100 361.791 98.2091 360 96 360Z" fill="#6A6AAA"/>
<path d="M379.696 170.728L117.142 198.324C106.157 199.478 98.1879 209.32 99.3425 220.305L113.558 355.56C114.713 366.545 124.554 374.514 135.539 373.36L398.093 345.764C409.078 344.609 417.048 334.768 415.893 323.783L401.677 188.528C400.523 177.543 390.681 169.574 379.696 170.728Z" fill="white"/>
<path d="M379.696 170.728L117.142 198.324C106.157 199.478 97.7199 204.867 98.2972 210.36C98.8745 215.852 108.248 219.369 119.233 218.214L381.787 190.619C392.772 189.464 401.209 184.075 400.632 178.583C400.055 173.09 390.681 169.574 379.696 170.728Z" fill="#E0E0EE"/>
<path d="M400.841 180.572L98.5059 212.349L99.3421 220.305L401.677 188.528L400.841 180.572Z" fill="#E0E0EE"/>
<path d="M86.9812 99.6261L68.4337 89.3467C67.5026 88.8253 66.8787 88.3598 66.5622 87.9501C66.2642 87.5404 66.1152 87.019 66.1152 86.3858C66.1152 85.5851 66.4039 84.8961 66.9812 84.3188C67.5584 83.7415 68.2381 83.4529 69.0203 83.4529C69.5044 83.4529 70.2493 83.7229 71.2549 84.2629L98.8806 99.6261L71.2549 114.989C70.2493 115.548 69.5044 115.827 69.0203 115.827C68.2381 115.827 67.5584 115.539 66.9812 114.961C66.4039 114.384 66.1152 113.686 66.1152 112.866C66.1152 112.233 66.2642 111.712 66.5622 111.302C66.8787 110.892 67.5026 110.427 68.4337 109.905L86.9812 99.6261Z" fill="#80E1AE"/>
<path d="M133.779 121.867H102.327C100.949 121.867 99.9711 121.606 99.3939 121.085C98.798 120.564 98.5 119.875 98.5 119.018C98.5 118.161 98.798 117.463 99.3939 116.923C99.9711 116.402 100.949 116.141 102.327 116.141H133.779C135.139 116.141 136.107 116.402 136.684 116.923C137.28 117.463 137.578 118.161 137.578 119.018C137.578 119.856 137.29 120.536 136.712 121.057C136.135 121.597 135.157 121.867 133.779 121.867Z" fill="#80E1AE"/>
<path d="M161.35 323.199L153.936 252.651L167.4 251.236L194.708 285.755C199.149 291.52 205.251 301.232 205.251 301.232L205.535 301.202C205.535 301.202 203.621 290.283 202.883 283.266L199.166 247.897L211.587 246.592L219.002 317.139L205.538 318.555L178.344 284.215C173.799 278.366 167.697 268.653 167.697 268.653L167.507 268.673C167.507 268.673 169.327 279.603 170.065 286.619L173.772 321.893L161.35 323.199Z" fill="#1E1E2E"/>
<path d="M254.442 314.948C238.323 316.643 227.415 305.901 225.84 290.919C224.256 275.843 233.176 263.113 248.158 261.538C255.554 260.761 261.607 262.713 266.352 266.816C271.831 271.513 275.039 279.229 275.931 288.627L238.097 292.603C239.867 301.237 245.131 306.628 253.57 305.741C259.355 305.133 262.888 302.269 264.062 297.927L275.82 296.691C274.311 306.053 266.864 313.643 254.442 314.948ZM249.074 270.262C241.204 271.089 237.695 276.923 237.489 284.997L262.712 282.346C261.361 274.052 256.376 269.495 249.074 270.262Z" fill="#1E1E2E"/>
<path d="M280.04 310.724L295.645 282.24L276.71 259.88L290.554 258.425L296.416 265.861C298.861 269.056 302.104 274.371 302.104 274.371L302.294 274.351C302.294 274.351 304.446 268.373 306.088 264.845L310.372 256.342L323.267 254.986L309.714 280.186L331.15 305.352L317.211 306.817L309.507 297.369C306.947 293.995 303.38 288.33 303.38 288.33L303.19 288.35C303.19 288.35 300.784 294.643 298.981 298.475L293.315 309.329L280.04 310.724Z" fill="#1E1E2E"/>
<path d="M329.589 262.663L328.722 254.413L336.497 253.596L334.803 237.476L346.656 236.23L348.35 252.35L358.496 251.284L359.363 259.533L349.217 260.6L352.197 288.951C352.586 292.649 354.687 293.483 358.1 293.124C359.333 292.995 361.02 292.626 361.948 292.336L362.517 292.277L363.504 301.664C361.552 302.253 358.842 302.921 355.618 303.26C347.464 304.117 341.56 301.765 340.623 292.852L337.364 261.845L329.589 262.663Z" fill="#1E1E2E"/>
</g>
<defs>
<clipPath id="clip0_959_4588">
<rect width="512" height="512" fill="white"/>
</clipPath>
</defs>
</svg>
